<svg width="80" height="61" viewBox="0 0 80 61" fill="none" xmlns="http://www.w3.org/2000/svg">
<path d="M25.6682 28.7792C25.7182 20.4492 18.2382 5.39918 9.07819 4.56918C8.30819 4.50918 7.52819 4.57918 6.78819 4.75918C6.38819 4.88918 6.00819 5.10918 5.65819 5.37918C1.49819 8.80918 3.49819 16.7692 4.93819 21.2092C5.44819 22.6592 6.16819 24.8192 6.63819 26.3092C9.47819 34.7092 12.7482 43.1392 17.6782 50.5392C19.6882 53.4592 23.5782 58.3492 27.4682 57.9392C36.6982 56.7992 48.0382 34.3092 51.8082 26.1892C53.6182 22.1292 55.6282 16.7492 55.1582 12.2792C54.9382 10.2092 53.8282 8.33918 51.7282 7.82918C47.7082 6.97918 42.8282 12.5892 40.4982 15.4392C38.2682 18.2092 36.2782 21.1692 34.4682 24.2292C33.1282 26.5192 31.8382 28.8692 30.8482 31.3192C30.7282 31.6192 30.6182 31.9292 30.5282 32.2292C29.7982 34.4692 28.9682 36.6792 28.2082 38.9092C27.0582 42.2692 25.9582 45.6792 25.2782 49.1592C24.9582 50.8592 24.7082 52.6292 24.8782 54.3392C25.0582 56.0792 25.7982 57.3692 27.6782 57.3092C32.0282 57.1392 37.0482 51.0592 39.6682 47.8292C42.4382 44.3392 44.9482 40.6292 47.3282 36.8592C51.6682 30.0392 57.1882 17.6492 57.0182 9.56918C56.8882 7.19918 55.9182 4.24918 53.6382 3.19918C50.1782 1.80918 47.4482 5.66918 46.4582 8.53918C45.2382 12.0292 46.2482 15.5792 50.2382 16.2392C51.0782 16.3992 51.9182 16.3092 52.7682 16.1692C54.5082 15.8692 56.2182 15.3392 57.8982 14.7992C64.6782 12.5092 71.2282 9.59918 77.7482 6.66918C77.7982 6.64918 77.8682 6.66918 77.8882 6.71918C77.9082 6.76918 77.8882 6.82918 77.8382 6.85918C71.4482 10.1292 64.9382 13.1792 58.1482 15.5692C56.4282 16.1492 54.7082 16.6892 52.9082 17.0092C51.0482 17.3992 49.0382 17.1592 47.4382 16.0592C43.2082 13.0392 45.3882 6.54918 48.5782 3.55918C49.9782 2.22918 52.1682 1.51918 54.0082 2.36918C56.6582 3.57918 57.7982 6.80918 57.9482 9.52918C58.1582 17.8092 52.5982 30.3892 48.1682 37.3892C44.1982 43.6092 37.0882 54.5092 30.4882 57.6592C28.7882 58.4792 26.2482 58.8592 24.8682 57.2292C21.8482 53.6592 25.8182 42.7192 27.1682 38.5492C27.8882 36.4292 28.6682 34.3292 29.3682 32.2092C29.7582 30.8992 30.3382 29.6292 30.9282 28.4092C34.2282 21.7692 41.0882 10.7792 47.7182 7.38918C48.9882 6.75918 50.5482 6.33918 51.9982 6.68918C53.4582 7.03918 54.7682 8.03918 55.4782 9.35918C56.8282 11.9292 56.4782 14.9292 55.9582 17.6492C55.2382 21.0492 54.0082 24.2992 52.5282 27.4292C49.4082 34.0992 45.9082 40.5892 41.7682 46.6892C38.4882 51.3792 31.2882 61.3592 24.6882 58.6992C15.5682 54.8692 8.55819 35.7392 5.51819 26.6692C4.47819 23.2592 3.05819 19.8192 2.43819 16.2992C1.80819 12.7292 1.53819 8.52918 3.89819 5.46918C4.58819 4.61918 5.54819 3.83918 6.67819 3.56918C7.03819 3.49918 7.38819 3.42918 7.74819 3.39918C10.1282 3.15918 12.4982 3.98918 14.4682 5.25918C17.5782 7.27918 19.9382 10.1892 21.8682 13.2892C23.7682 16.3992 25.2282 19.7692 26.1182 23.3192C26.5582 25.0892 26.8382 26.9192 26.8482 28.7692C26.8482 29.0892 26.5882 29.3492 26.2682 29.3492C25.9482 29.3492 25.6882 29.0892 25.6882 28.7692L25.6682 28.7792Z" fill="url(#paint0_linear_22_85)" stroke="#E16262" stroke-width="3" stroke-miterlimit="10"/>
<defs>
<linearGradient id="paint0_linear_22_85" x1="1.97819" y1="30.5792" x2="77.8782" y2="30.5792" gradientUnits="userSpaceOnUse">
<stop stop-color="#F99395"/>
<stop offset="1" stop-color="#FF9C99"/>
</linearGradient>
</defs>
</svg>
