<svg width="280" height="42" viewBox="0 0 280 42" fill="none" xmlns="http://www.w3.org/2000/svg">
<path d="M13.7975 40.9C11.6641 40.9 9.6808 40.4833 7.84746 39.65C6.01413 38.8167 4.49746 37.5167 3.29746 35.75C2.09746 33.95 1.34746 31.6333 1.04746 28.8C1.01413 28.4333 0.980794 28.0667 0.947461 27.7C0.947461 27.3333 0.947461 26.9833 0.947461 26.65C0.947461 24.4167 1.28079 22.2 1.94746 20C2.64746 17.7667 3.61413 15.6667 4.84746 13.7C6.08079 11.7333 7.54746 9.98333 9.24746 8.45C10.9475 6.91667 12.8141 5.71667 14.8475 4.85C16.9141 3.95 19.0975 3.5 21.3975 3.5H22.1475C23.3475 3.53333 24.4641 3.75 25.4975 4.15C26.5641 4.55 27.4141 5.18333 28.0475 6.05C28.7141 6.88333 29.0475 8.03333 29.0475 9.5C29.0475 11.1333 28.5641 12.7333 27.5975 14.3C26.6308 15.8333 25.3475 17.2333 23.7475 18.5C22.1475 19.7667 20.3808 20.7833 18.4475 21.55C16.5141 22.2833 14.5641 22.65 12.5975 22.65C12.4641 22.65 12.3308 22.65 12.1975 22.65C12.0641 22.6167 11.9141 22.6 11.7475 22.6C11.3141 22.5667 10.9975 22.4 10.7975 22.1C10.6308 21.8 10.5475 21.55 10.5475 21.35C12.6475 21.35 14.7141 21.0167 16.7475 20.35C18.8141 19.6833 20.6641 18.6667 22.2975 17.3C23.9641 15.9 25.2475 14.1167 26.1475 11.95C26.6141 10.8167 26.8475 9.78333 26.8475 8.85C26.8475 7.88333 26.5475 7.08333 25.9475 6.45C25.3808 5.78333 24.3975 5.41667 22.9975 5.35H22.6475C21.3141 5.35 19.8641 5.73333 18.2975 6.5C16.7308 7.23333 15.1808 8.28333 13.6475 9.65C12.1141 11.0167 10.7141 12.6333 9.44746 14.5C8.21413 16.3667 7.21413 18.45 6.44746 20.75C5.68079 23.0167 5.29746 25.4333 5.29746 28V28.45C5.29746 31.0833 5.69746 33.1833 6.49746 34.75C7.33079 36.2833 8.43079 37.3833 9.79746 38.05C11.1975 38.7167 12.7141 39.05 14.3475 39.05C14.6141 39.05 14.8641 39.05 15.0975 39.05C15.3641 39.05 15.6141 39.0333 15.8475 39C17.5141 38.8333 19.1808 38.3333 20.8475 37.5C22.5141 36.6333 24.0641 35.5667 25.4975 34.3C26.9308 33.0333 28.1141 31.65 29.0475 30.15C30.0141 28.65 30.5975 27.1833 30.7975 25.75C30.8308 25.5833 30.9141 25.5 31.0475 25.5C31.1808 25.5 31.3141 25.55 31.4475 25.65C31.5808 25.75 31.6475 25.8667 31.6475 26V26.05C31.6475 27.55 31.3308 28.9333 30.6975 30.2C30.0975 31.4667 29.3975 32.6333 28.5975 33.7C27.0975 35.7 25.1641 37.3167 22.7975 38.55C20.4641 39.7833 18.0641 40.5333 15.5975 40.8C15.2975 40.8333 14.9975 40.85 14.6975 40.85C14.3975 40.8833 14.0975 40.9 13.7975 40.9ZM46.9705 39.25C45.9372 39.25 45.1038 38.9333 44.4705 38.3C43.8372 37.6333 43.3372 36.8 42.9705 35.8C42.6372 34.7667 42.4038 33.7333 42.2705 32.7C42.1372 31.6333 42.0705 30.7 42.0705 29.9C41.6705 31.4 41.1538 32.8667 40.5205 34.3C39.9205 35.7333 39.2538 36.9167 38.5205 37.85C37.7872 38.75 36.9872 39.2 36.1205 39.2H36.0705C35.2705 39.2 34.6038 38.8333 34.0705 38.1C33.5372 37.3333 33.1372 36.3333 32.8705 35.1C32.6038 33.8667 32.4705 32.5333 32.4705 31.1V30.6C32.4705 29.2667 32.5872 27.8 32.8205 26.2C33.0538 24.5667 33.4705 23.0167 34.0705 21.55C34.6705 20.0833 35.4872 18.8833 36.5205 17.95C37.5872 16.9833 38.9372 16.5 40.5705 16.5C41.2038 16.5 41.7705 16.65 42.2705 16.95C42.8038 17.2167 43.1872 17.6167 43.4205 18.15C43.6538 17.8833 43.9705 17.6667 44.3705 17.5C44.7705 17.3333 45.2538 17.25 45.8205 17.25C46.0205 17.25 46.2372 17.2667 46.4705 17.3C46.7372 17.3333 47.0038 17.3833 47.2705 17.45C47.0705 18.2167 46.8372 19.2667 46.5705 20.6C46.3038 21.9333 46.0705 23.4 45.8705 25C45.7038 26.5667 45.6205 28.1 45.6205 29.6V29.8C45.6205 30.4333 45.6538 31.1833 45.7205 32.05C45.7872 32.9167 45.9038 33.7667 46.0705 34.6C46.2372 35.4333 46.4705 36.1333 46.7705 36.7C47.0705 37.2667 47.4538 37.55 47.9205 37.55H47.9705C48.2372 37.55 48.5205 37.4167 48.8205 37.15C49.1538 36.8833 49.5038 36.3833 49.8705 35.65C50.3705 34.6833 50.8372 33.4333 51.2705 31.9C51.3372 31.6 51.4705 31.45 51.6705 31.45C51.8372 31.45 51.9205 31.65 51.9205 32.05V32.25C51.8538 33.1167 51.6205 34.1 51.2205 35.2C50.8205 36.3 50.2538 37.25 49.5205 38.05C48.8205 38.85 47.9705 39.25 46.9705 39.25ZM37.8205 35.1C38.3538 35.1 38.8372 34.7167 39.2705 33.95C39.7372 33.1833 40.1538 32.25 40.5205 31.15C40.8872 30.05 41.2038 28.9833 41.4705 27.95C41.8705 26.4167 42.1372 24.8667 42.2705 23.3C42.4038 21.7 42.6872 20.1333 43.1205 18.6C42.7205 18.1667 42.2705 17.95 41.7705 17.95C41.0372 17.95 40.2872 18.3167 39.5205 19.05C38.7538 19.7833 38.1538 20.6167 37.7205 21.55C37.1872 22.7167 36.7872 24.0833 36.5205 25.65C36.2872 27.2167 36.1705 28.7167 36.1705 30.15C36.1705 30.5167 36.1705 30.8833 36.1705 31.25C36.2038 31.6167 36.2372 31.9667 36.2705 32.3C36.3372 33.3 36.5205 34.0167 36.8205 34.45C37.1538 34.8833 37.4872 35.1 37.8205 35.1ZM52.4264 39.4C51.5264 39.4 51.0764 38.8 51.0764 37.6C51.0764 37.4 51.0764 37.1833 51.0764 36.95C51.1097 36.7167 51.143 36.4667 51.1764 36.2C51.2764 35.6333 51.3597 34.8333 51.4264 33.8C51.493 32.7333 51.543 31.55 51.5764 30.25C51.643 28.9167 51.6764 27.6 51.6764 26.3C51.6764 24.8333 51.6264 23.4667 51.5264 22.2C51.4597 20.9 51.3097 19.8833 51.0764 19.15C51.4097 19.0833 51.7764 18.9 52.1764 18.6C52.5764 18.3 53.0097 18.1 53.4764 18C53.5764 17.9667 53.7097 17.95 53.8764 17.95C54.443 17.95 54.793 18.25 54.9264 18.85C55.093 19.45 55.1764 20.1833 55.1764 21.05C55.1764 21.65 55.1597 22.3667 55.1264 23.2C55.1264 24 55.093 24.7 55.0264 25.3C55.393 24.2333 55.793 23.3167 56.2264 22.55C56.6597 21.75 57.1264 20.9833 57.6264 20.25C58.3264 19.1833 59.043 18.35 59.7764 17.75C60.543 17.15 61.2597 16.85 61.9264 16.85C62.7264 16.85 63.243 17.1 63.4764 17.6C63.743 18.0667 63.8764 18.65 63.8764 19.35C63.8764 19.8167 63.843 20.3167 63.7764 20.85C63.743 21.35 63.7097 21.85 63.6764 22.35L63.3764 26.8L63.8764 25.3C64.243 24.2333 64.643 23.3167 65.0764 22.55C65.5097 21.75 65.9764 20.9833 66.4764 20.25C67.1764 19.1833 67.893 18.35 68.6264 17.75C69.393 17.15 70.1097 16.85 70.7764 16.85C71.7097 16.85 72.3097 17.1667 72.5764 17.8C72.843 18.4 72.9764 19.15 72.9764 20.05C72.9764 20.4167 72.9597 20.8 72.9264 21.2C72.9264 21.5667 72.9097 21.95 72.8764 22.35C72.843 22.8167 72.7764 23.7667 72.6764 25.2C72.5764 26.6 72.493 28.1167 72.4264 29.75C72.4264 29.8833 72.4097 30.15 72.3764 30.55C72.3764 30.95 72.3764 31.4 72.3764 31.9C72.3764 32.6667 72.4097 33.4833 72.4764 34.35C72.5764 35.1833 72.743 35.9 72.9764 36.5C73.243 37.1 73.6097 37.4 74.0764 37.4C74.7097 37.4 75.243 37.1 75.6764 36.5C76.1097 35.8667 76.4597 35.1667 76.7264 34.4C77.0264 33.6333 77.2264 33.0333 77.3264 32.6C77.4597 32.2 77.6264 32 77.8264 32C78.0264 32 78.1264 32.2 78.1264 32.6V32.7C78.1264 32.9333 78.0764 33.2333 77.9764 33.6C77.9097 33.9667 77.8097 34.3333 77.6764 34.7C77.2764 35.9333 76.7097 37.0167 75.9764 37.95C75.243 38.85 74.1764 39.3 72.7764 39.3C71.643 39.3 70.793 38.95 70.2264 38.25C69.693 37.5167 69.3264 36.65 69.1264 35.65C68.9597 34.65 68.8764 33.7 68.8764 32.8V31.9C68.943 30.4333 68.993 29.1667 69.0264 28.1C69.0597 27 69.093 25.8833 69.1264 24.75C69.1264 24.5833 69.1264 24.3833 69.1264 24.15C69.1597 23.9167 69.1764 23.65 69.1764 23.35C69.1764 22.7167 69.1264 22.1 69.0264 21.5C68.9264 20.9 68.693 20.6 68.3264 20.6C68.0597 20.6 67.6264 20.9667 67.0264 21.7C66.493 22.4333 65.943 23.45 65.3764 24.75C64.843 26.05 64.393 27.5333 64.0264 29.2C63.6597 30.8667 63.4764 32.6 63.4764 34.4C63.4764 35.0333 63.493 35.6667 63.5264 36.3C63.593 36.9 63.693 37.5167 63.8264 38.15C63.7597 38.1833 63.6264 38.2333 63.4264 38.3C63.2597 38.3667 63.043 38.4 62.7764 38.4C62.4097 38.4 62.0264 38.2833 61.6264 38.05C61.2264 37.8167 60.893 37.3333 60.6264 36.6C60.393 35.9333 60.2264 35.2333 60.1264 34.5C60.0597 33.7333 60.0264 32.95 60.0264 32.15C60.0264 30.9833 60.0764 29.8 60.1764 28.6C60.2764 27.4 60.3597 26.2167 60.4264 25.05V24.3C60.4264 23.8667 60.4097 23.3833 60.3764 22.85C60.343 22.2833 60.243 21.8 60.0764 21.4C59.943 20.9667 59.7264 20.75 59.4264 20.75C59.0597 20.75 58.643 21.0667 58.1764 21.7C57.6097 22.4333 57.0264 23.5167 56.4264 24.95C55.8264 26.35 55.3264 27.95 54.9264 29.75C54.5264 31.5167 54.3264 33.35 54.3264 35.25C54.3264 36.3833 54.4264 37.5333 54.6264 38.7C54.2597 38.9 53.8764 39.0667 53.4764 39.2C53.1097 39.3333 52.7597 39.4 52.4264 39.4ZM82.2947 13.7C81.6614 13.7 81.0947 13.4667 80.5947 13C80.1281 12.5333 79.8947 11.9667 79.8947 11.3C79.8947 10.6333 80.1281 10.0667 80.5947 9.6C81.0947 9.13333 81.6614 8.9 82.2947 8.9C82.9614 8.9 83.5281 9.13333 83.9947 9.6C84.4614 10.0667 84.6947 10.6333 84.6947 11.3C84.6947 11.9667 84.4614 12.5333 83.9947 13C83.5281 13.4667 82.9614 13.7 82.2947 13.7ZM82.8947 39.5C81.6947 39.5 80.7114 39.0833 79.9447 38.25C79.2114 37.4167 78.6447 36.4 78.2447 35.2C77.8781 33.9667 77.6114 32.7833 77.4447 31.65C77.3447 30.8833 77.2781 30.1667 77.2447 29.5C77.2447 28.8 77.2447 28.1167 77.2447 27.45C77.3114 25.55 77.4781 23.8 77.7447 22.2C78.0447 20.6 78.3447 19.5167 78.6447 18.95C78.8447 18.55 79.1614 18.1833 79.5947 17.85C80.0614 17.4833 80.6781 17.3 81.4447 17.3C81.8781 17.3 82.3114 17.35 82.7447 17.45C82.4114 18.6167 82.0114 20.25 81.5447 22.35C81.0781 24.4167 80.8447 26.7 80.8447 29.2C80.8447 30.4667 80.9281 31.75 81.0947 33.05C81.2614 34.35 81.5781 35.45 82.0447 36.35C82.5447 37.2167 83.2281 37.65 84.0947 37.65C84.7947 37.65 85.4114 37.3833 85.9447 36.85C86.6114 36.2167 87.1114 35.3667 87.4447 34.3C87.8114 33.2333 88.1281 32.15 88.3947 31.05C88.4947 30.5833 88.6614 30.35 88.8947 30.35C89.1281 30.35 89.2447 30.55 89.2447 30.95C89.2447 31.05 89.2281 31.1667 89.1947 31.3C89.1947 31.4333 89.1781 31.5833 89.1447 31.75C88.9447 32.8833 88.5947 34.05 88.0947 35.25C87.6281 36.45 86.9781 37.4667 86.1447 38.3C85.3114 39.1 84.2281 39.5 82.8947 39.5ZM93.3393 39.2C92.1393 39.2 91.1893 38.8167 90.4893 38.05C89.7893 37.2833 89.2726 36.3667 88.9393 35.3C88.6059 34.2 88.4059 33.1833 88.3393 32.25C88.2726 31.35 88.2226 30.4 88.1893 29.4C88.1559 28.3667 88.1393 27.2833 88.1393 26.15C88.1393 24.0833 88.1893 21.95 88.2893 19.75C88.4226 17.55 88.6059 15.4167 88.8393 13.35C89.1059 11.25 89.4226 9.38333 89.7893 7.75C89.9893 6.91667 90.3059 5.96666 90.7393 4.9C91.1726 3.83333 91.7393 2.91666 92.4393 2.15C93.1393 1.35 93.9726 0.949998 94.9393 0.949998C96.9059 0.949998 97.8893 2.43333 97.8893 5.4C97.8893 6.56667 97.6893 8.25 97.2893 10.45C96.9226 12.6167 96.2393 15.05 95.2393 17.75C94.7393 19.15 94.1393 20.5667 93.4393 22C92.7726 23.4 92.1059 24.6833 91.4393 25.85C91.4059 26.1167 91.3893 26.4 91.3893 26.7C91.3893 26.9667 91.3893 27.2333 91.3893 27.5C91.3893 28.6333 91.4226 29.7833 91.4893 30.95C91.5893 32.1167 91.7393 33.2 91.9393 34.2C92.1726 35.1667 92.4893 35.95 92.8893 36.55C93.2893 37.15 93.8059 37.45 94.4393 37.45C95.1726 37.45 95.7559 37.15 96.1893 36.55C96.6559 35.9167 97.0059 35.3167 97.2393 34.75C97.3726 34.45 97.4893 34.1167 97.5893 33.75C97.7226 33.3833 97.8559 33 97.9893 32.6C98.1226 32.2333 98.3059 32.05 98.5393 32.05C98.7059 32.05 98.7893 32.2333 98.7893 32.6V32.7C98.7893 32.9333 98.7393 33.2333 98.6393 33.6C98.5726 33.9667 98.4726 34.3333 98.3393 34.7C97.9393 35.9333 97.3559 37 96.5893 37.9C95.8226 38.7667 94.7393 39.2 93.3393 39.2ZM91.4893 23.7C92.3559 21.9333 93.1559 20.0667 93.8893 18.1C94.6226 16.1 95.2059 14.1333 95.6393 12.2C96.1059 10.2667 96.3393 8.51666 96.3393 6.95C96.3393 5.98333 96.2559 5.18333 96.0893 4.55C95.9559 3.91667 95.6893 3.6 95.2893 3.6C94.9226 3.6 94.5726 3.98333 94.2393 4.75C93.9393 5.48333 93.6559 6.46666 93.3893 7.7C93.1226 8.93333 92.8726 10.2667 92.6393 11.7C92.4393 13.1 92.2559 14.5 92.0893 15.9C91.9559 17.2667 91.8393 18.4833 91.7393 19.55C91.6726 20.5833 91.6226 21.3333 91.5893 21.8C91.5893 22 91.5726 22.2667 91.5393 22.6C91.5393 22.9 91.5226 23.2667 91.4893 23.7ZM112.449 39.25C111.416 39.25 110.582 38.9333 109.949 38.3C109.316 37.6333 108.816 36.8 108.449 35.8C108.116 34.7667 107.882 33.7333 107.749 32.7C107.616 31.6333 107.549 30.7 107.549 29.9C107.149 31.4 106.632 32.8667 105.999 34.3C105.399 35.7333 104.732 36.9167 103.999 37.85C103.266 38.75 102.466 39.2 101.599 39.2H101.549C100.749 39.2 100.082 38.8333 99.549 38.1C99.0157 37.3333 98.6157 36.3333 98.349 35.1C98.0824 33.8667 97.949 32.5333 97.949 31.1V30.6C97.949 29.2667 98.0657 27.8 98.299 26.2C98.5324 24.5667 98.949 23.0167 99.549 21.55C100.149 20.0833 100.966 18.8833 101.999 17.95C103.066 16.9833 104.416 16.5 106.049 16.5C106.682 16.5 107.249 16.65 107.749 16.95C108.282 17.2167 108.666 17.6167 108.899 18.15C109.132 17.8833 109.449 17.6667 109.849 17.5C110.249 17.3333 110.732 17.25 111.299 17.25C111.499 17.25 111.716 17.2667 111.949 17.3C112.216 17.3333 112.482 17.3833 112.749 17.45C112.549 18.2167 112.316 19.2667 112.049 20.6C111.782 21.9333 111.549 23.4 111.349 25C111.182 26.5667 111.099 28.1 111.099 29.6V29.8C111.099 30.4333 111.132 31.1833 111.199 32.05C111.266 32.9167 111.382 33.7667 111.549 34.6C111.716 35.4333 111.949 36.1333 112.249 36.7C112.549 37.2667 112.932 37.55 113.399 37.55H113.449C113.716 37.55 113.999 37.4167 114.299 37.15C114.632 36.8833 114.982 36.3833 115.349 35.65C115.849 34.6833 116.316 33.4333 116.749 31.9C116.816 31.6 116.949 31.45 117.149 31.45C117.316 31.45 117.399 31.65 117.399 32.05V32.25C117.332 33.1167 117.099 34.1 116.699 35.2C116.299 36.3 115.732 37.25 114.999 38.05C114.299 38.85 113.449 39.25 112.449 39.25ZM103.299 35.1C103.832 35.1 104.316 34.7167 104.749 33.95C105.216 33.1833 105.632 32.25 105.999 31.15C106.366 30.05 106.682 28.9833 106.949 27.95C107.349 26.4167 107.616 24.8667 107.749 23.3C107.882 21.7 108.166 20.1333 108.599 18.6C108.199 18.1667 107.749 17.95 107.249 17.95C106.516 17.95 105.766 18.3167 104.999 19.05C104.232 19.7833 103.632 20.6167 103.199 21.55C102.666 22.7167 102.266 24.0833 101.999 25.65C101.766 27.2167 101.649 28.7167 101.649 30.15C101.649 30.5167 101.649 30.8833 101.649 31.25C101.682 31.6167 101.716 31.9667 101.749 32.3C101.816 33.3 101.999 34.0167 102.299 34.45C102.632 34.8833 102.966 35.1 103.299 35.1ZM142.976 40.85C140.843 40.85 138.976 40.4333 137.376 39.6C135.81 38.7667 134.493 37.6333 133.426 36.2C132.393 34.7333 131.61 33.0667 131.076 31.2C130.543 29.3333 130.276 27.3833 130.276 25.35C128.81 24.8167 127.593 24.05 126.626 23.05C125.693 22.0167 125.226 20.7333 125.226 19.2C125.226 18.3667 125.41 17.6667 125.776 17.1C126.176 16.5333 126.626 16.0667 127.126 15.7C127.66 15.3333 128.143 15.0833 128.576 14.95C128.61 14.95 128.643 14.95 128.676 14.95C128.71 14.9167 128.743 14.9 128.776 14.9C129.01 14.9 129.126 15.0333 129.126 15.3C129.126 15.5 129.01 15.65 128.776 15.75C128.376 15.9167 127.993 16.3167 127.626 16.95C127.293 17.5833 127.126 18.2167 127.126 18.85C127.126 19.85 127.426 20.7333 128.026 21.5C128.66 22.2333 129.426 22.8667 130.326 23.4C130.493 21 130.993 18.6333 131.826 16.3C132.693 13.9667 133.876 11.8667 135.376 10C136.876 8.1 138.693 6.6 140.826 5.5C142.993 4.36666 145.46 3.8 148.226 3.8C151.426 3.8 153.793 4.55 155.326 6.05C156.86 7.55 157.626 9.4 157.626 11.6C157.626 13.1667 157.376 14.6 156.876 15.9C157.876 18 158.376 20.4167 158.376 23.15C158.376 25.25 158.06 27.35 157.426 29.45C156.793 31.5167 155.826 33.4167 154.526 35.15C153.26 36.85 151.66 38.2167 149.726 39.25C147.793 40.3167 145.543 40.85 142.976 40.85ZM137.026 25.2C138.593 25.2 140.226 25.0167 141.926 24.65C143.66 24.2833 145.326 23.7167 146.926 22.95C148.56 22.1833 150.01 21.2333 151.276 20.1C152.543 18.9333 153.526 17.55 154.226 15.95C153.626 14.6833 152.776 13.6 151.676 12.7C150.61 11.8 149.26 11.1833 147.626 10.85C147.493 10.8167 147.426 10.75 147.426 10.65C147.426 10.4167 147.61 10.3 147.976 10.3H148.476C149.843 10.3 151.076 10.55 152.176 11.05C153.276 11.55 154.226 12.2333 155.026 13.1C155.126 12.5 155.176 11.8833 155.176 11.25C155.176 9.71667 154.793 8.5 154.026 7.6C153.293 6.66667 152.393 6 151.326 5.6C150.26 5.16666 149.276 4.95 148.376 4.95C146.31 4.95 144.443 5.53333 142.776 6.7C141.11 7.86667 139.676 9.41667 138.476 11.35C137.276 13.2833 136.326 15.4333 135.626 17.8C134.926 20.1333 134.493 22.4833 134.326 24.85C134.826 24.9833 135.31 25.0833 135.776 25.15C136.276 25.1833 136.693 25.2 137.026 25.2ZM142.826 39.7C144.626 39.7 146.293 39.1667 147.826 38.1C149.36 37.0333 150.693 35.6333 151.826 33.9C152.993 32.1667 153.893 30.2667 154.526 28.2C155.16 26.1 155.476 24.0333 155.476 22C155.476 21.4667 155.443 20.95 155.376 20.45C155.343 19.95 155.293 19.4667 155.226 19C153.893 20.7667 152.193 22.2 150.126 23.3C148.06 24.4 145.876 25.2 143.576 25.7C141.31 26.2 139.176 26.45 137.176 26.45C136.21 26.45 135.243 26.4 134.276 26.3V26.75C134.276 29.05 134.576 31.1833 135.176 33.15C135.776 35.1167 136.71 36.7 137.976 37.9C139.243 39.1 140.86 39.7 142.826 39.7ZM166.723 39.55C165.223 39.55 163.957 39.2 162.923 38.5C161.923 37.7667 161.423 36.4833 161.423 34.65C161.423 34.5833 161.423 34.4333 161.423 34.2C161.457 33.9333 161.49 33.6667 161.523 33.4C161.323 33.0333 161.223 32.5333 161.223 31.9C161.223 31.5 161.29 31.15 161.423 30.85C161.557 30.55 161.757 30.4 162.023 30.4H162.073C162.173 30.4 162.307 30.5167 162.473 30.75C162.907 29.5167 163.307 28.25 163.673 26.95C164.04 25.6167 164.373 24.4333 164.673 23.4C165.007 22.2 165.423 20.9167 165.923 19.55C166.457 18.15 167.29 17.0833 168.423 16.35C169.29 15.7833 170.223 15.5 171.223 15.5C171.29 15.5 171.373 15.5167 171.473 15.55C171.573 15.55 171.657 15.55 171.723 15.55C171.99 15.5833 172.123 15.7 172.123 15.9C172.123 16.1333 172.007 16.25 171.773 16.25C171.407 16.2833 171.14 16.5833 170.973 17.15C170.807 17.6833 170.723 18.3 170.723 19C170.723 19.1667 170.723 19.35 170.723 19.55C170.723 19.75 170.74 19.9333 170.773 20.1C170.907 21.2 171.207 22.4167 171.673 23.75C172.14 25.05 172.573 26.3667 172.973 27.7C173.407 29 173.623 30.2167 173.623 31.35V31.6C173.623 32.0333 173.59 32.5 173.523 33C173.49 33.5 173.39 33.9833 173.223 34.45C173.69 34.4167 174.14 34.3667 174.573 34.3C175.04 34.2 175.457 34.0833 175.823 33.95C176.29 33.75 176.657 33.5167 176.923 33.25C177.223 32.9833 177.473 32.6833 177.673 32.35C177.74 32.25 177.823 32.2 177.923 32.2C178.19 32.2 178.323 32.3667 178.323 32.7C178.323 32.8 178.29 32.9167 178.223 33.05C177.857 33.7833 177.19 34.3833 176.223 34.85C175.257 35.3167 174.123 35.5833 172.823 35.65C172.357 36.7167 171.623 37.6333 170.623 38.4C169.657 39.1667 168.357 39.55 166.723 39.55ZM169.123 33.9C169.19 33.5333 169.24 33.15 169.273 32.75C169.307 32.35 169.323 31.95 169.323 31.55C169.323 30.9167 169.29 30.2833 169.223 29.65C169.157 28.9833 169.073 28.3333 168.973 27.7C168.74 26.1333 168.457 24.7 168.123 23.4C167.823 22.1 167.673 20.9333 167.673 19.9C167.673 19.3667 167.723 18.8833 167.823 18.45C167.657 18.45 167.473 18.7 167.273 19.2C167.073 19.7 166.873 20.2667 166.673 20.9C166.473 21.5333 166.307 22.1 166.173 22.6C165.773 24.0333 165.34 25.5167 164.873 27.05C164.407 28.55 163.907 30.0333 163.373 31.5C163.74 31.7333 164.157 31.9667 164.623 32.2C165.123 32.4333 165.607 32.65 166.073 32.85C166.507 33.05 166.973 33.25 167.473 33.45C168.007 33.6167 168.557 33.7667 169.123 33.9ZM165.373 37.9H165.573C166.173 37.8333 166.773 37.6333 167.373 37.3C167.973 36.9333 168.407 36.3833 168.673 35.65C168.673 35.6167 168.673 35.6 168.673 35.6C168.707 35.5667 168.723 35.5333 168.723 35.5C167.49 35.4 166.323 35.25 165.223 35.05C164.157 34.8167 163.29 34.5333 162.623 34.2C162.623 34.3 162.607 34.4 162.573 34.5C162.573 34.6 162.573 34.6833 162.573 34.75C162.573 35.75 162.823 36.5333 163.323 37.1C163.857 37.6333 164.54 37.9 165.373 37.9ZM183.195 39.5C182.061 39.5 181.128 39.2 180.395 38.6C179.695 38 179.145 37.2167 178.745 36.25C178.378 35.2833 178.111 34.2333 177.945 33.1C177.811 31.9333 177.745 30.8 177.745 29.7C177.745 28.8667 177.778 28.1 177.845 27.4C177.911 26.6667 177.961 26.0333 177.995 25.5C178.161 24.1 178.528 22.7 179.095 21.3C179.661 19.8667 180.495 18.6833 181.595 17.75C182.695 16.7833 184.145 16.3 185.945 16.3C187.511 16.3 188.645 16.9333 189.345 18.2C190.045 19.4667 190.461 20.9667 190.595 22.7C191.161 23.1 191.678 23.3 192.145 23.3C192.745 23.3 193.311 23 193.845 22.4C194.378 21.8 194.828 20.8 195.195 19.4C194.761 18.9667 194.428 18.45 194.195 17.85C193.961 17.2167 193.845 16.6 193.845 16C193.845 15.3 193.995 14.7 194.295 14.2C194.595 13.6667 195.061 13.4 195.695 13.4C195.761 13.4 195.811 13.4167 195.845 13.45C195.911 13.45 195.978 13.45 196.045 13.45C196.478 13.5167 196.778 13.7667 196.945 14.2C197.111 14.6333 197.195 15.1333 197.195 15.7C197.195 16.4667 197.095 17.2667 196.895 18.1C196.728 18.9 196.578 19.4833 196.445 19.85C196.378 19.9833 196.345 20.0833 196.345 20.15C196.511 20.1833 196.661 20.2 196.795 20.2C196.961 20.2 197.111 20.2 197.245 20.2C198.178 20.2 198.828 20.0167 199.195 19.65C199.461 19.3833 199.761 19.0167 200.095 18.55C200.461 18.05 201.011 17.8 201.745 17.8C202.311 17.8 202.945 17.9833 203.645 18.35C203.545 18.55 203.411 18.85 203.245 19.25C203.078 19.6167 202.895 20.1 202.695 20.7C202.195 22.2 201.745 23.9 201.345 25.8C200.945 27.6667 200.711 29.5833 200.645 31.55V32.45C200.645 33.0833 200.695 33.8167 200.795 34.65C200.895 35.45 201.078 36.15 201.345 36.75C201.645 37.35 202.095 37.6833 202.695 37.75H202.895C203.561 37.75 204.095 37.55 204.495 37.15C204.895 36.7167 205.228 36.2333 205.495 35.7C205.761 35.2333 205.995 34.6667 206.195 34C206.428 33.3333 206.661 32.6333 206.895 31.9C207.028 31.6 207.161 31.45 207.295 31.45C207.461 31.45 207.545 31.65 207.545 32.05V32.25C207.511 32.9167 207.395 33.6333 207.195 34.4C206.995 35.1333 206.695 35.8167 206.295 36.45L205.645 37.45C204.911 38.5167 203.911 39.15 202.645 39.35C202.511 39.3833 202.361 39.4 202.195 39.4C202.061 39.4 201.911 39.4 201.745 39.4C200.545 39.4 199.628 39.05 198.995 38.35C198.361 37.6167 197.911 36.7 197.645 35.6C197.411 34.4667 197.295 33.3167 197.295 32.15C197.295 31.2833 197.328 30.4667 197.395 29.7C197.495 28.9 197.578 28.2 197.645 27.6C197.945 25.1333 198.311 23.0667 198.745 21.4C198.211 21.5 197.728 21.55 197.295 21.55C196.995 21.55 196.728 21.5333 196.495 21.5C196.261 21.4333 196.045 21.3833 195.845 21.35C195.311 22.45 194.711 23.2333 194.045 23.7C193.378 24.1333 192.711 24.35 192.045 24.35C191.645 24.35 191.195 24.2667 190.695 24.1V24.5C190.695 25.9333 190.595 27.3333 190.395 28.7C190.228 30.0333 190.028 31.1 189.795 31.9C189.528 32.9333 189.095 34.05 188.495 35.25C187.895 36.4167 187.145 37.4167 186.245 38.25C185.378 39.0833 184.361 39.5 183.195 39.5ZM184.845 36.75C185.545 36.75 186.128 36.4167 186.595 35.75C187.095 35.0833 187.511 34.3167 187.845 33.45C188.178 32.5833 188.411 31.85 188.545 31.25C188.678 30.75 188.778 30.1 188.845 29.3C188.945 28.5 188.995 27.6667 188.995 26.8C188.995 26.1 188.945 25.4 188.845 24.7C188.778 23.9667 188.661 23.2833 188.495 22.65C188.028 22.2833 187.528 21.7667 186.995 21.1C186.495 20.4 186.245 19.7333 186.245 19.1C186.245 18.5 186.528 18.0333 187.095 17.7C186.761 17.4667 186.445 17.35 186.145 17.35C185.545 17.35 185.011 17.6833 184.545 18.35C184.078 19.0167 183.678 19.8167 183.345 20.75C183.045 21.6833 182.795 22.5833 182.595 23.45C182.428 24.2833 182.328 24.8667 182.295 25.2C182.261 25.5667 182.211 26.1333 182.145 26.9C182.078 27.6333 182.045 28.45 182.045 29.35C182.045 30.4833 182.111 31.6167 182.245 32.75C182.411 33.8833 182.695 34.8333 183.095 35.6C183.495 36.3667 184.078 36.75 184.845 36.75ZM212.568 13.7C211.935 13.7 211.368 13.4667 210.868 13C210.401 12.5333 210.168 11.9667 210.168 11.3C210.168 10.6333 210.401 10.0667 210.868 9.6C211.368 9.13333 211.935 8.9 212.568 8.9C213.235 8.9 213.801 9.13333 214.268 9.6C214.735 10.0667 214.968 10.6333 214.968 11.3C214.968 11.9667 214.735 12.5333 214.268 13C213.801 13.4667 213.235 13.7 212.568 13.7ZM212.218 39.25C211.018 39.25 210.068 38.75 209.368 37.75C208.701 36.7167 208.218 35.4167 207.918 33.85C207.651 32.25 207.518 30.5833 207.518 28.85C207.518 27.4167 207.585 26.0333 207.718 24.7C207.885 23.3333 208.068 22.15 208.268 21.15C208.501 20.1167 208.718 19.3833 208.918 18.95C209.118 18.55 209.435 18.1833 209.868 17.85C210.335 17.4833 210.951 17.3 211.718 17.3C212.151 17.3 212.585 17.35 213.018 17.45C212.685 18.6167 212.285 20.2333 211.818 22.3C211.351 24.3667 211.118 26.65 211.118 29.15C211.118 30.0167 211.135 30.95 211.168 31.95C211.201 32.9167 211.285 33.8333 211.418 34.7C211.551 35.5333 211.751 36.2167 212.018 36.75C212.318 37.2833 212.701 37.55 213.168 37.55H213.218C213.485 37.55 213.768 37.4167 214.068 37.15C214.401 36.8833 214.751 36.3833 215.118 35.65C215.618 34.6833 216.085 33.4333 216.518 31.9C216.585 31.6 216.718 31.45 216.918 31.45C217.085 31.45 217.168 31.65 217.168 32.05V32.25C217.101 33.1167 216.868 34.1 216.468 35.2C216.068 36.3 215.501 37.25 214.768 38.05C214.068 38.85 213.218 39.25 212.218 39.25ZM221.811 39.5C220.677 39.5 219.744 39.2 219.011 38.6C218.311 38 217.761 37.2167 217.361 36.25C216.994 35.2833 216.727 34.2333 216.561 33.1C216.427 31.9333 216.361 30.8 216.361 29.7C216.361 28.8667 216.394 28.1 216.461 27.4C216.527 26.6667 216.577 26.0333 216.611 25.5C216.777 24.1 217.144 22.7 217.711 21.3C218.277 19.8667 219.111 18.6833 220.211 17.75C221.311 16.7833 222.761 16.3 224.561 16.3C225.827 16.3 226.794 16.7167 227.461 17.55C228.161 18.35 228.644 19.4 228.911 20.7C229.177 21.9667 229.311 23.3167 229.311 24.75C229.311 25.15 229.294 25.55 229.261 25.95C229.261 26.35 229.244 26.75 229.211 27.15C230.044 28.0833 231.044 28.55 232.211 28.55C233.111 28.55 233.994 28.2167 234.861 27.55C235.061 27.3833 235.244 27.3 235.411 27.3C235.544 27.3 235.611 27.3833 235.611 27.55C235.611 27.85 235.527 28.05 235.361 28.15C234.827 28.65 234.261 29.0167 233.661 29.25C233.061 29.4833 232.461 29.6 231.861 29.6C230.827 29.6 229.877 29.3 229.011 28.7C228.944 29.3333 228.844 29.9333 228.711 30.5C228.611 31.0333 228.511 31.5 228.411 31.9C228.111 32.9333 227.661 34.05 227.061 35.25C226.494 36.4167 225.761 37.4167 224.861 38.25C223.994 39.0833 222.977 39.5 221.811 39.5ZM223.461 36.75C224.161 36.75 224.744 36.4167 225.211 35.75C225.711 35.0833 226.127 34.3167 226.461 33.45C226.794 32.5833 227.027 31.85 227.161 31.25C227.261 30.7833 227.344 30.25 227.411 29.65C227.477 29.05 227.527 28.3333 227.561 27.5C227.094 27.1 226.694 26.3833 226.361 25.35C226.061 24.2833 225.911 23.2667 225.911 22.3C225.911 21.6333 225.994 21.05 226.161 20.55C226.327 20.0167 226.577 19.6667 226.911 19.5C226.711 19 226.444 18.5333 226.111 18.1C225.777 17.6333 225.311 17.4 224.711 17.4C224.144 17.4 223.627 17.7333 223.161 18.4C222.727 19.0667 222.344 19.8667 222.011 20.8C221.677 21.7333 221.411 22.6167 221.211 23.45C221.044 24.2833 220.944 24.8667 220.911 25.2C220.877 25.5667 220.827 26.1333 220.761 26.9C220.694 27.6333 220.661 28.45 220.661 29.35C220.661 30.4833 220.727 31.6167 220.861 32.75C221.027 33.8833 221.311 34.8333 221.711 35.6C222.111 36.3667 222.694 36.75 223.461 36.75ZM263.297 41.65C262.297 41.65 261.463 41.2833 260.797 40.55C260.163 39.8167 259.663 38.8333 259.297 37.6C258.963 36.3667 258.713 35 258.547 33.5C258.413 31.9667 258.347 30.4167 258.347 28.85C258.347 28.1833 258.347 27.55 258.347 26.95C258.38 26.3167 258.413 25.6833 258.447 25.05C258.28 25.0833 258.097 25.1 257.897 25.1C257.73 25.1 257.563 25.1 257.397 25.1C256.397 25.1 255.597 25 254.997 24.8C254.697 24.7 254.413 24.45 254.147 24.05C253.913 23.65 253.713 23.2167 253.547 22.75C253.413 22.2833 253.347 21.9333 253.347 21.7C253.347 21.5333 253.38 21.45 253.447 21.45H253.497C254.297 21.6833 255.097 21.8667 255.897 22C256.697 22.1333 257.497 22.2 258.297 22.2H258.647C258.713 21.3667 258.78 20.6333 258.847 20C258.913 19.3333 258.963 18.7833 258.997 18.35C259.197 16.2833 259.43 14.3333 259.697 12.5C259.997 10.6333 260.313 8.98333 260.647 7.55C259.447 7.38333 258.23 7.25 256.997 7.15C255.797 7.01667 254.563 6.95 253.297 6.95C252.33 6.95 251.33 7 250.297 7.1C249.297 7.16667 248.28 7.31667 247.247 7.55C245.213 7.98333 243.497 8.65 242.097 9.55C240.697 10.45 239.647 11.4333 238.947 12.5C238.247 13.5667 237.897 14.6 237.897 15.6C237.897 16.6333 238.313 17.5333 239.147 18.3C240.013 19.0333 241.313 19.4 243.047 19.4C243.313 19.4 243.58 19.4 243.847 19.4C244.113 19.3667 244.397 19.3333 244.697 19.3C245.597 19.1667 246.68 18.8833 247.947 18.45C249.213 18.0167 250.513 17.4833 251.847 16.85C253.213 16.1833 254.43 15.4667 255.497 14.7C255.597 14.6 255.797 14.55 256.097 14.55C256.23 14.55 256.297 14.6 256.297 14.7C256.297 14.8 256.213 14.9667 256.047 15.2C255.913 15.4 255.647 15.7 255.247 16.1C253.58 17.7333 251.63 18.9333 249.397 19.7C247.197 20.4333 245.03 20.8 242.897 20.8C242.563 20.8 242.23 20.8 241.897 20.8C241.597 20.7667 241.297 20.7333 240.997 20.7C239.163 20.5 237.73 19.8 236.697 18.6C235.697 17.4 235.197 16.0167 235.197 14.45C235.197 13.2833 235.513 12.1 236.147 10.9C236.78 9.66666 237.747 8.55 239.047 7.55C240.38 6.51667 242.097 5.7 244.197 5.1C246.297 4.46667 248.813 4.15 251.747 4.15C253.147 4.15 254.663 4.26666 256.297 4.5C257.93 4.73333 259.597 5.01667 261.297 5.35C261.33 5.28333 261.347 5.21667 261.347 5.15C261.38 5.05 261.413 4.96667 261.447 4.9C261.48 4.8 261.547 4.75 261.647 4.75C261.78 4.71666 261.897 4.7 261.997 4.7C262.83 4.7 263.547 4.81666 264.147 5.05C264.78 5.25 265.097 5.58333 265.097 6.05C266.563 6.28333 267.98 6.5 269.347 6.7C270.747 6.86667 272.063 6.95 273.297 6.95C274.463 6.95 275.513 6.85 276.447 6.65C277.013 6.51667 277.447 6.28333 277.747 5.95C278.047 5.58333 278.197 5.23333 278.197 4.9C278.197 4.43333 277.98 4.08333 277.547 3.85C277.513 3.81666 277.497 3.76666 277.497 3.7C277.497 3.53333 277.563 3.45 277.697 3.45C278.33 3.45 278.863 3.7 279.297 4.2C279.763 4.7 279.997 5.28333 279.997 5.95C279.997 6.58333 279.697 7.2 279.097 7.8C278.53 8.4 277.53 8.78333 276.097 8.95C275.197 9.05 274.28 9.1 273.347 9.1C271.913 9.1 270.463 9.01666 268.997 8.85C267.563 8.65 266.113 8.43333 264.647 8.2C264.313 9.73333 263.913 11.7833 263.447 14.35C263.013 16.8833 262.613 19.5333 262.247 22.3C264.047 22.2667 265.813 22.15 267.547 21.95C269.313 21.7167 270.813 21.3667 272.047 20.9C272.213 20.8 272.33 20.75 272.397 20.75C272.63 20.75 272.763 20.85 272.797 21.05V21.15C272.797 21.35 272.68 21.5167 272.447 21.65C272.213 21.7833 272.063 21.8833 271.997 21.95C271.397 22.2167 270.547 22.5167 269.447 22.85C268.38 23.1833 267.197 23.5167 265.897 23.85C264.597 24.15 263.28 24.4167 261.947 24.65C261.88 25.5833 261.813 26.4833 261.747 27.35C261.68 28.2167 261.63 29.0833 261.597 29.95C261.597 30.2833 261.58 30.6333 261.547 31C261.547 31.3667 261.547 31.75 261.547 32.15C261.547 33.2833 261.597 34.4333 261.697 35.6C261.83 36.7333 262.063 37.6833 262.397 38.45C262.73 39.2167 263.23 39.6 263.897 39.6C264.23 39.6 264.53 39.5 264.797 39.3C265.063 39.1 265.247 38.8833 265.347 38.65C265.447 38.3833 265.563 38.25 265.697 38.25C265.897 38.25 265.997 38.4167 265.997 38.75V38.85C265.997 39.65 265.747 40.3167 265.247 40.85C264.78 41.3833 264.13 41.65 263.297 41.65Z" fill="#E26262"/>
</svg>
